<?xml version="1.0" encoding="utf-8"?>
<!-- Generator: Adobe Illustrator 24.1.0, SVG Export Plug-In . SVG Version: 6.00 Build 0)  -->
<svg version="1.1" id="测绘基准影像匹配" xmlns="http://www.w3.org/2000/svg" xmlns:xlink="http://www.w3.org/1999/xlink"
	 x="0px" y="0px" width="48px" height="48px" viewBox="0 0 48 48" style="enable-background:new 0 0 48 48;" xml:space="preserve">
<style type="text/css">
	.st0{fill:#231F20;}
</style>
<g>
	<path class="st0" d="M3,2C2.4,2,2,2.4,2,3v42c0,0.6,0.4,1,1,1h42c0.6,0,1-0.4,1-1V3c0-0.6-0.4-1-1-1H3z M44,44H4V4h40V44z"/>
	<path class="st0" d="M9.5,36c0.6,0,0.9,0.1,1.3,0.4c0.5,0.3,1.1,0.6,2.3,0.6c1.2,0,1.8-0.3,2.3-0.6c0.4-0.2,0.7-0.4,1.3-0.4
		s0.9,0.1,1.3,0.4c0.5,0.3,1.1,0.6,2.3,0.6c1.2,0,1.8-0.3,2.3-0.6c0.4-0.2,0.7-0.4,1.3-0.4s0.9,0.1,1.3,0.4c0.5,0.3,1.1,0.6,2.3,0.6
		c1.2,0,1.8-0.3,2.3-0.6c0.4-0.2,0.7-0.4,1.3-0.4c0.6,0,0.9,0.1,1.3,0.4c0.5,0.3,1.1,0.6,2.3,0.6c1.2,0,1.8-0.3,2.3-0.6
		c0.4-0.2,0.7-0.4,1.3-0.4c0.6,0,1-0.4,1-1s-0.4-1-1-1c-1.2,0-1.8,0.3-2.3,0.6c-0.4,0.2-0.7,0.4-1.3,0.4s-0.9-0.1-1.3-0.4
		C33,34.3,32.4,34,31.2,34c-1.2,0-1.8,0.3-2.3,0.6c-0.4,0.2-0.7,0.4-1.3,0.4s-0.9-0.1-1.3-0.4C25.8,34.3,25.2,34,24,34
		s-1.8,0.3-2.3,0.6C21.3,34.8,21,35,20.4,35c-0.6,0-0.9-0.1-1.3-0.4c-0.5-0.3-1.1-0.6-2.3-0.6s-1.8,0.3-2.3,0.6
		c-0.4,0.2-0.7,0.4-1.3,0.4s-0.9-0.1-1.3-0.4c-0.5-0.3-1.1-0.6-2.3-0.6c-0.6,0-1,0.4-1,1S9,36,9.5,36z"/>
	<path class="st0" d="M32.2,38.8c-1,0-1.6,0.4-2,0.7c-0.3,0.2-0.4,0.3-0.8,0.3c-0.4,0-0.5-0.1-0.8-0.3c-0.4-0.3-0.9-0.7-2-0.7
		c-1,0-1.6,0.4-2,0.7c-0.3,0.2-0.4,0.3-0.8,0.3c-0.4,0-0.5-0.1-0.8-0.3c-0.4-0.3-0.9-0.7-2-0.7s-1.6,0.4-2,0.7
		c-0.3,0.2-0.4,0.3-0.8,0.3c-0.4,0-0.5-0.1-0.8-0.3c-0.4-0.3-0.9-0.7-2-0.7c-0.6,0-1,0.4-1,1s0.4,1,1,1c0.4,0,0.5,0.1,0.8,0.3
		c0.4,0.3,0.9,0.7,2,0.7s1.6-0.4,2-0.7c0.3-0.2,0.4-0.3,0.8-0.3s0.5,0.1,0.8,0.3c0.4,0.3,0.9,0.7,2,0.7s1.6-0.4,2-0.7
		c0.3-0.2,0.4-0.3,0.8-0.3c0.4,0,0.5,0.1,0.8,0.3c0.4,0.3,0.9,0.7,2,0.7c1,0,1.6-0.4,2-0.7c0.3-0.2,0.4-0.3,0.8-0.3c0.6,0,1-0.4,1-1
		S32.7,38.8,32.2,38.8z"/>
	<path class="st0" d="M24,31.1c4.5,0,8.1-3.6,8.1-8c0-3.1-2.9-7.1-5.2-10.3c-0.7-0.9-1.3-1.8-1.8-2.6c-0.5-0.8-1.8-0.7-2.2,0
		c-0.5,0.9-1.3,2-2.2,3.2c-2.2,3.1-4.7,6.6-4.7,9.6C16,27.5,19.5,31.1,24,31.1z M22.3,14.7c0.6-0.9,1.2-1.7,1.7-2.4
		c0.4,0.6,0.8,1.2,1.3,1.8c2,2.8,4.8,6.6,4.8,9.1c0,3.3-2.7,6-6.1,6c-3.3,0-6-2.7-6-6C18,20.8,20.4,17.5,22.3,14.7z"/>
	<path class="st0" d="M23.1,27.6c0.1,0,0.1,0,0.2,0c0.5,0,0.9-0.3,1-0.8c0.1-0.5-0.2-1.1-0.8-1.2c-1.9-0.4-1.9-2.4-1.9-2.6
		c0-0.5-0.4-1-1-1c0,0,0,0,0,0c-0.5,0-1,0.4-1,1C19.6,24.3,20.3,27,23.1,27.6z"/>
</g>
</svg>
